<?xml version="1.0" encoding="UTF-8"?>
<svg version="1.1" xmlns="http://www.w3.org/2000/svg" width="200" height="200">
<path d="M0 0 C3.67588076 1.417038 6.39100392 4.06243226 9.33984375 6.6171875 C17.28040401 12.98796889 26.15174761 15.84109427 36.05859375 17.203125 C46.51338865 18.72054911 46.51338865 18.72054911 51.046875 22.7890625 C59.72671524 34.4619511 55.73748746 57.86152068 53.80078125 71.57421875 C50.56200559 91.11164322 42.1261851 108.55259839 26.07421875 120.80078125 C4.85689847 134.73576967 4.85689847 134.73576967 -6.953125 132.7890625 C-25.46426871 126.72855832 -40.62260091 114.20397876 -49.765625 97.0390625 C-56.85379734 82.08976168 -58.19572958 66.86555957 -58.30322266 50.55566406 C-58.31982537 48.71113506 -58.3471719 46.86667151 -58.38525391 45.02246094 C-58.44019948 42.34016127 -58.46191394 39.65935 -58.4765625 36.9765625 C-58.49923187 36.15969971 -58.52190125 35.34283691 -58.54525757 34.5012207 C-58.5263939 29.35377223 -57.525261 26.28282252 -54.39926147 22.17851257 C-49.78383883 17.74400764 -42.75985095 17.30359376 -36.703125 16.4765625 C-26.45180131 14.84310368 -18.62733086 11.20795675 -10.703125 4.4140625 C-7.1830771 1.5105835 -4.68013441 -0.50545452 0 0 Z " fill="#000000" transform="translate(101.953125,33.2109375)"/>
</svg>
